<?xml version="1.0" encoding="UTF-8"?>
<!DOCTYPE svg PUBLIC "-//W3C//DTD SVG 1.1//EN" "http://www.w3.org/Graphics/SVG/1.1/DTD/svg11.dtd">
<svg version="1.1" xmlns="http://www.w3.org/2000/svg" xmlns:xlink="http://www.w3.org/1999/xlink" x="0" y="0" width="1113.503" height="102.933" viewBox="0, 0, 1113.503, 102.933">
  <g id="g10" transform="translate(-43.248, -99.416)">
    <path d="M63.976,171.901 L78.839,171.901 C90.312,171.901 96.048,168.12 96.048,160.82 C96.048,153.651 89.92,149.739 77.927,149.739 L63.976,149.739 L63.976,171.901 z M63.976,118.449 L63.976,139.049 L77.013,139.049 C86.791,139.049 91.876,135.397 91.876,128.749 C91.876,121.969 86.661,118.449 76.884,118.449 L63.976,118.449 z M43.248,182.984 L43.248,171.901 L51.983,171.901 L51.983,118.449 L43.248,118.449 L43.248,107.368 L78.187,107.368 C94.223,107.368 104.001,114.799 104.001,127.707 C104.001,136.18 99.047,141.395 92.788,143.872 C101.784,146.349 108.172,152.737 108.172,161.472 C108.172,175.291 97.483,182.984 80.012,182.984 L43.248,182.984" fill="#100F0D" id="path14"/>
    <path d="M171.536,143.611 C170.231,139.179 166.972,136.571 162.669,136.571 C152.632,136.571 143.113,144.001 143.113,157.56 L143.113,171.901 L162.409,171.901 L162.409,182.984 L119.388,182.984 L119.388,171.901 L131.641,171.901 L131.641,138.527 L121.995,138.527 L121.995,127.444 L142.984,127.444 L142.984,136.831 C146.504,130.313 153.675,125.62 163.192,125.62 C173.883,125.62 180.531,131.748 182.487,140.483 L171.536,143.611" fill="#100F0D" id="path16"/>
    <path d="M230.205,160.559 C226.555,159.256 221.079,158.213 215.995,158.213 C208.693,158.213 201.653,160.559 201.653,167.209 C201.653,172.163 206.085,174.509 212.213,174.509 C220.687,174.509 230.205,169.945 230.205,162.124 L230.205,160.559 z M230.205,150.652 L230.205,147.523 C230.205,139.7 223.947,136.441 217.168,136.441 C210.78,136.441 205.304,139.049 200.871,143.089 L193.309,134.877 C198.524,130.052 205.955,125.62 217.168,125.62 C231.116,125.62 241.939,133.052 241.939,147.131 L241.939,171.901 L250.021,171.901 L250.021,182.984 L230.205,182.984 L230.205,177.116 C227.207,181.941 219.123,184.808 211.169,184.808 C199.697,184.808 189.789,178.941 189.789,167.339 C189.789,153.651 203.219,148.436 215.472,148.436 C221.469,148.436 226.424,149.608 230.205,150.652" fill="#100F0D" id="path18"/>
    <path d="M298.261,116.364 L285.355,116.364 L285.355,99.416 L298.261,99.416 L298.261,116.364 z M319.643,171.901 L319.643,182.984 L263.583,182.984 L263.583,171.901 L286.788,171.901 L286.788,138.527 L269.057,138.527 L269.057,127.444 L298.261,127.444 L298.261,171.901 L319.643,171.901" fill="#100F0D" id="path20"/>
    <path d="M333.464,171.901 L341.939,171.901 L341.939,138.527 L333.985,138.527 L333.985,127.444 L353.28,127.444 L353.28,134.615 C356.669,129.14 363.711,125.62 372.315,125.62 C384.7,125.62 393.565,133.441 393.565,146.088 L393.565,171.901 L402.04,171.901 L402.04,182.984 L373.227,182.984 L373.227,171.901 L382.093,171.901 L382.093,149.217 C382.093,139.569 376.225,136.831 370.881,136.831 C362.145,136.831 353.411,143.351 353.411,153.388 L353.411,171.901 L362.277,171.901 L362.277,182.984 L333.464,182.984 L333.464,171.901" fill="#100F0D" id="path22"/>
    <path d="M417.817,138.527 L403.345,138.527 L403.345,127.444 L417.817,127.444 L417.817,107.368 L429.289,107.368 L429.289,127.444 L456.277,127.444 L456.277,138.527 L429.289,138.527 L429.289,161.863 C429.289,170.468 435.287,173.988 442.196,173.988 C448.715,173.988 454.191,170.337 458.232,166.296 L465.924,174.248 C460.839,179.724 453.017,184.808 442.196,184.808 C428.247,184.808 417.817,177.116 417.817,162.255 L417.817,138.527" fill="#100F0D" id="path24"/>
    <path d="M528.504,143.611 C527.2,139.179 523.941,136.571 519.639,136.571 C509.601,136.571 500.083,144.001 500.083,157.56 L500.083,171.901 L519.379,171.901 L519.379,182.984 L476.356,182.984 L476.356,171.901 L488.611,171.901 L488.611,138.527 L478.963,138.527 L478.963,127.444 L499.952,127.444 L499.952,136.831 C503.473,130.313 510.644,125.62 520.161,125.62 C530.851,125.62 537.5,131.748 539.455,140.483 L528.504,143.611" fill="#100F0D" id="path26"/>
    <path d="M559.404,149.479 L593.561,149.479 C591.867,141.525 584.827,136.18 577.004,136.18 C568.139,136.18 561.36,141.656 559.404,149.479 z M605.685,174.509 C599.949,180.505 589.78,184.808 578.439,184.808 C559.795,184.808 546.759,172.292 546.759,155.215 C546.759,138.136 559.404,125.62 577.004,125.62 C594.475,125.62 606.728,139.049 606.728,157.3 L606.728,159.256 L558.884,159.256 C560.837,168.512 568.531,174.117 578.568,174.117 C586.912,174.117 594.083,170.728 597.995,166.427 L605.685,174.509" fill="#100F0D" id="path28"/>
    <path d="M630.721,149.479 L664.877,149.479 C663.183,141.525 656.143,136.18 648.32,136.18 C639.455,136.18 632.675,141.656 630.721,149.479 z M677.001,174.509 C671.265,180.505 661.097,184.808 649.755,184.808 C631.111,184.808 618.073,172.292 618.073,155.215 C618.073,138.136 630.721,125.62 648.32,125.62 C665.789,125.62 678.045,139.049 678.045,157.3 L678.045,159.256 L630.199,159.256 C632.155,168.512 639.845,174.117 649.885,174.117 C658.228,174.117 665.399,170.728 669.311,166.427 L677.001,174.509" fill="#100F0D" id="path30"/>
    <path d="M696.3,200.584 L748.969,200.584 L748.969,189.502 L696.3,189.502 L696.3,200.584 z" fill="#100F0D" id="path32"/>
    <path d="M1031.557,99.769 L1001.615,99.769 C999.564,99.769 997.82,101.256 997.504,103.285 L985.395,180.065 C985.155,181.579 986.331,182.947 987.857,182.947 L1003.221,182.947 C1004.656,182.947 1005.876,181.903 1006.099,180.492 L1009.535,158.721 C1009.849,156.697 1011.595,155.211 1013.64,155.211 L1023.119,155.211 C1042.841,155.211 1054.224,145.665 1057.197,126.747 C1058.539,118.472 1057.256,111.972 1053.38,107.423 C1049.123,102.42 1041.576,99.769 1031.557,99.769 M1035.011,127.812 C1033.377,138.564 1025.169,138.564 1017.223,138.564 L1012.708,138.564 L1015.879,118.493 C1016.069,117.281 1017.116,116.389 1018.341,116.389 L1020.415,116.389 C1025.821,116.389 1030.923,116.389 1033.555,119.465 C1035.131,121.308 1035.605,124.043 1035.011,127.812" fill="#459ADB" id="path34"/>
    <path d="M817.984,99.769 L788.041,99.769 C785.991,99.769 784.251,101.256 783.931,103.285 L771.825,180.065 C771.581,181.579 772.753,182.947 774.284,182.947 L788.583,182.947 C790.629,182.947 792.369,181.455 792.693,179.44 L795.965,158.721 C796.281,156.697 798.025,155.211 800.072,155.211 L809.545,155.211 C829.268,155.211 840.655,145.665 843.625,126.747 C844.969,118.472 843.683,111.972 839.812,107.423 C835.549,102.42 828.003,99.769 817.984,99.769 M821.443,127.812 C819.804,138.564 811.596,138.564 803.655,138.564 L799.135,138.564 L802.305,118.493 C802.496,117.281 803.543,116.389 804.768,116.389 L806.841,116.389 C812.248,116.389 817.349,116.389 819.987,119.465 C821.563,121.308 822.037,124.043 821.443,127.812" fill="#293B82" id="path36"/>
    <path d="M907.485,127.469 L893.147,127.469 C891.917,127.469 890.869,128.361 890.679,129.577 L890.048,133.581 L889.049,132.135 C885.941,127.628 879.021,126.12 872.109,126.12 C856.265,126.12 842.74,138.123 840.103,154.961 C838.736,163.36 840.68,171.391 845.443,176.988 C849.816,182.137 856.061,184.277 863.497,184.277 C876.269,184.277 883.349,176.079 883.349,176.079 L882.711,180.064 C882.471,181.573 883.639,182.945 885.179,182.945 L898.088,182.945 C900.139,182.945 901.879,181.463 902.199,179.439 L909.953,130.355 C910.189,128.84 909.017,127.469 907.485,127.469 M887.504,155.379 C886.115,163.568 879.616,169.073 871.319,169.073 C867.16,169.073 863.831,167.732 861.691,165.201 C859.569,162.689 858.769,159.112 859.44,155.129 C860.732,147.005 867.341,141.332 875.509,141.332 C879.58,141.332 882.888,142.681 885.072,145.239 C887.265,147.813 888.131,151.413 887.504,155.379" fill="#293B82" id="path38"/>
    <path d="M1121.053,127.469 L1106.717,127.469 C1105.492,127.469 1104.445,128.361 1104.249,129.577 L1103.624,133.581 L1102.62,132.135 C1099.513,127.628 1092.592,126.12 1085.68,126.12 C1069.841,126.12 1056.311,138.123 1053.673,154.961 C1052.307,163.36 1054.251,171.391 1059.015,176.988 C1063.391,182.137 1069.632,184.277 1077.073,184.277 C1089.844,184.277 1096.92,176.079 1096.92,176.079 L1096.281,180.064 C1096.041,181.573 1097.213,182.945 1098.749,182.945 L1111.659,182.945 C1113.709,182.945 1115.449,181.463 1115.773,179.439 L1123.52,130.355 C1123.76,128.84 1122.587,127.469 1121.053,127.469 M1101.076,155.379 C1099.691,163.568 1093.187,169.073 1084.891,169.073 C1080.731,169.073 1077.401,167.732 1075.261,165.201 C1073.14,162.689 1072.34,159.112 1073.015,155.129 C1074.303,147.005 1080.912,141.332 1089.081,141.332 C1093.156,141.332 1096.459,142.681 1098.643,145.239 C1100.84,147.813 1101.705,151.413 1101.076,155.379" fill="#459ADB" id="path40"/>
    <path d="M983.851,127.469 L969.437,127.469 C968.061,127.469 966.773,128.152 966.001,129.297 L946.117,158.575 L937.692,130.439 C937.164,128.676 935.544,127.469 933.705,127.469 L919.54,127.469 C917.831,127.469 916.624,129.151 917.179,130.772 L933.044,177.352 L918.12,198.412 C916.948,200.068 918.128,202.349 920.157,202.349 L934.553,202.349 C935.916,202.349 937.195,201.683 937.976,200.564 L985.901,131.388 C987.047,129.733 985.867,127.469 983.851,127.469" fill="#293B82" id="path42"/>
    <path d="M1137.96,101.879 L1125.667,180.065 C1125.427,181.58 1126.6,182.951 1128.133,182.951 L1140.493,182.951 C1142.533,182.951 1144.28,181.46 1144.6,179.436 L1156.72,102.655 C1156.96,101.141 1155.787,99.769 1154.253,99.769 L1140.427,99.769 C1139.187,99.769 1138.147,100.661 1137.96,101.879" fill="#459ADB" id="path44"/>
  </g>
</svg>
