<?xml version="1.0" encoding="utf-8"?>
<!-- Generator: Adobe Illustrator 16.2.1, SVG Export Plug-In . SVG Version: 6.00 Build 0)  -->
<!DOCTYPE svg PUBLIC "-//W3C//DTD SVG 1.1//EN" "http://www.w3.org/Graphics/SVG/1.1/DTD/svg11.dtd">
<svg version="1.1" xmlns="http://www.w3.org/2000/svg" xmlns:xlink="http://www.w3.org/1999/xlink" x="0px" y="0px" width="200px"
	 height="46.666px" viewBox="0 0 200 46.666" enable-backgrounds="new 0 0 200 46.666" xml:space="preserve">
<g id="colour">
	<path fill="#333333" d="M51.38,27.83c0.32,0.504,0.74,0.906,1.26,1.201c0.519,0.3,1.106,0.512,1.76,0.637
		c0.652,0.131,1.326,0.195,2.02,0.195c0.533,0,1.092-0.037,1.68-0.117c0.586-0.078,1.127-0.217,1.62-0.425
		c0.494-0.205,0.899-0.509,1.219-0.908c0.32-0.4,0.481-0.91,0.481-1.529c0-0.853-0.334-1.498-1-1.937
		c-0.667-0.437-1.5-0.793-2.5-1.064c-1-0.27-2.087-0.517-3.26-0.735c-1.173-0.219-2.259-0.529-3.26-0.93
		c-0.999-0.399-1.833-0.96-2.5-1.684c-0.666-0.722-1-1.728-1-3.02c0-1.006,0.232-1.87,0.699-2.593
		c0.467-0.723,1.067-1.31,1.801-1.761c0.732-0.452,1.56-0.788,2.479-1.006c0.92-0.219,1.834-0.33,2.739-0.33
		c1.174,0,2.254,0.097,3.241,0.291c0.986,0.193,1.858,0.529,2.618,1.006c0.761,0.477,1.367,1.122,1.821,1.936
		c0.453,0.812,0.72,1.826,0.798,3.04h-3.398c-0.055-0.646-0.227-1.182-0.52-1.606c-0.294-0.426-0.668-0.768-1.121-1.029
		c-0.454-0.255-0.953-0.444-1.5-0.56c-0.546-0.116-1.099-0.174-1.659-0.174c-0.507,0-1.021,0.039-1.541,0.117
		c-0.519,0.077-0.992,0.212-1.419,0.407c-0.427,0.192-0.773,0.45-1.04,0.773c-0.267,0.322-0.401,0.741-0.401,1.257
		c0,0.569,0.207,1.041,0.621,1.413c0.413,0.375,0.941,0.685,1.58,0.929c0.641,0.247,1.36,0.454,2.16,0.621
		c0.8,0.167,1.6,0.341,2.4,0.521c0.854,0.182,1.686,0.4,2.5,0.658c0.812,0.258,1.533,0.6,2.159,1.026
		c0.627,0.425,1.133,0.962,1.52,1.607c0.387,0.645,0.58,1.445,0.58,2.4c0,1.213-0.26,2.219-0.779,3.019
		c-0.521,0.801-1.201,1.447-2.041,1.938c-0.84,0.488-1.787,0.832-2.84,1.025c-1.052,0.193-2.099,0.289-3.139,0.289
		c-1.147,0-2.239-0.115-3.28-0.348c-1.04-0.232-1.96-0.613-2.759-1.145c-0.801-0.527-1.44-1.225-1.92-2.089
		c-0.48-0.866-0.747-1.917-0.801-3.155h3.401C50.885,26.715,51.06,27.328,51.38,27.83z"/>
	<rect x="68.979" y="12.288" fill="#333333" width="3.399" height="20.016"/>
	<path fill="#333333" d="M86.497,12.288v2.903h-4.12v12.427c0,0.387,0.034,0.697,0.099,0.929c0.065,0.234,0.194,0.414,0.381,0.543
		c0.187,0.129,0.446,0.213,0.779,0.251c0.333,0.037,0.768,0.057,1.301,0.057h1.561v2.906h-2.601c-0.88,0-1.633-0.059-2.26-0.176
		c-0.627-0.115-1.133-0.33-1.521-0.637c-0.386-0.311-0.673-0.752-0.859-1.318c-0.187-0.566-0.281-1.315-0.281-2.245V15.191h-3.519
		v-2.903h3.519v-6h3.401v6H86.497z"/>
	<path fill="#333333" d="M104.895,31.022c-1.545,1.137-3.495,1.705-5.84,1.705c-1.654,0-3.086-0.258-4.298-0.773
		c-1.214-0.516-2.234-1.242-3.06-2.168c-0.827-0.929-1.447-2.038-1.862-3.329c-0.413-1.292-0.645-2.698-0.699-4.221
		c0-1.521,0.24-2.915,0.72-4.18c0.481-1.264,1.153-2.362,2.021-3.291c0.864-0.929,1.892-1.651,3.079-2.168
		c1.187-0.516,2.484-0.774,3.898-0.774c1.841,0,3.367,0.367,4.581,1.103c1.213,0.737,2.185,1.671,2.919,2.807
		c0.733,1.135,1.24,2.375,1.52,3.716c0.28,1.342,0.395,2.619,0.342,3.833H92.736c-0.027,0.878,0.079,1.71,0.32,2.497
		c0.239,0.788,0.625,1.486,1.159,2.091c0.534,0.608,1.213,1.091,2.04,1.451c0.825,0.364,1.799,0.542,2.919,0.542
		c1.44,0,2.621-0.32,3.541-0.967c0.918-0.644,1.525-1.625,1.819-2.942h3.359C107.44,28.199,106.439,29.89,104.895,31.022z
		 M104.074,18.173c-0.307-0.696-0.72-1.297-1.239-1.8c-0.52-0.504-1.134-0.904-1.842-1.201c-0.705-0.297-1.484-0.445-2.339-0.445
		c-0.88,0-1.674,0.148-2.379,0.445c-0.707,0.296-1.313,0.702-1.82,1.219c-0.505,0.517-0.907,1.117-1.2,1.8
		c-0.292,0.684-0.466,1.411-0.519,2.186h11.878C104.56,19.603,104.38,18.87,104.074,18.173z"/>
	<path fill="#333333" d="M115.253,12.288v2.711h0.079c0.562-1.111,1.441-1.917,2.641-2.421c1.201-0.504,2.521-0.754,3.961-0.754
		c1.6,0,2.992,0.284,4.179,0.852c1.187,0.566,2.174,1.335,2.959,2.302c0.787,0.969,1.38,2.085,1.78,3.349
		c0.401,1.265,0.602,2.606,0.602,4.026c0,1.419-0.195,2.761-0.582,4.026c-0.386,1.265-0.973,2.368-1.76,3.309
		c-0.785,0.941-1.773,1.686-2.959,2.227c-1.187,0.541-2.566,0.812-4.141,0.812c-0.506,0-1.074-0.053-1.699-0.156
		c-0.628-0.102-1.247-0.268-1.86-0.5c-0.612-0.234-1.193-0.551-1.739-0.951c-0.547-0.398-1.007-0.895-1.381-1.488h-0.079v10.297
		h-3.4V12.288H115.253z M127.474,19.391c-0.254-0.89-0.642-1.682-1.161-2.379c-0.521-0.697-1.188-1.252-2-1.665
		c-0.814-0.413-1.767-0.619-2.86-0.619c-1.146,0-2.12,0.22-2.92,0.659c-0.8,0.438-1.454,1.013-1.959,1.721
		c-0.508,0.711-0.873,1.518-1.1,2.419c-0.228,0.903-0.342,1.82-0.342,2.75c0,0.981,0.121,1.927,0.361,2.844
		c0.24,0.917,0.62,1.724,1.14,2.419c0.521,0.696,1.192,1.258,2.02,1.684c0.825,0.427,1.827,0.638,2.999,0.638
		c1.175,0,2.154-0.219,2.941-0.658c0.785-0.438,1.42-1.018,1.899-1.742c0.481-0.722,0.825-1.546,1.04-2.477
		c0.212-0.929,0.319-1.883,0.319-2.866C127.852,21.192,127.725,20.281,127.474,19.391z"/>
	<path fill="#333333" d="M134.97,18.192c0.43-1.278,1.067-2.387,1.92-3.33c0.854-0.941,1.906-1.682,3.163-2.226
		c1.25-0.541,2.689-0.812,4.318-0.812c1.652,0,3.1,0.271,4.337,0.812c1.243,0.543,2.287,1.285,3.143,2.226
		c0.851,0.943,1.491,2.052,1.92,3.33c0.425,1.278,0.64,2.652,0.64,4.122c0,1.471-0.215,2.839-0.64,4.104
		c-0.429,1.265-1.069,2.368-1.92,3.312c-0.855,0.941-1.899,1.676-3.143,2.207c-1.237,0.527-2.685,0.791-4.337,0.791
		c-1.629,0-3.068-0.264-4.318-0.791c-1.257-0.531-2.309-1.266-3.163-2.207c-0.853-0.943-1.49-2.046-1.92-3.312
		c-0.427-1.265-0.638-2.633-0.638-4.104C134.332,20.844,134.543,19.47,134.97,18.192z M138.431,25.547
		c0.333,0.942,0.793,1.728,1.38,2.36c0.587,0.633,1.274,1.117,2.062,1.453c0.785,0.334,1.617,0.502,2.499,0.502
		c0.878,0,1.712-0.168,2.499-0.502c0.787-0.336,1.473-0.819,2.06-1.453c0.586-0.632,1.045-1.418,1.382-2.36
		c0.331-0.942,0.498-2.02,0.498-3.234c0-1.212-0.167-2.29-0.498-3.232c-0.337-0.94-0.796-1.736-1.382-2.379
		c-0.587-0.645-1.272-1.136-2.06-1.472c-0.787-0.335-1.621-0.503-2.499-0.503c-0.882,0-1.714,0.167-2.499,0.503
		c-0.787,0.336-1.475,0.827-2.062,1.472c-0.587,0.644-1.047,1.439-1.38,2.379c-0.332,0.942-0.501,2.02-0.501,3.232
		C137.93,23.528,138.099,24.605,138.431,25.547z"/>
	<rect x="158.609" y="12.288" fill="#333333" width="3.4" height="20.016"/>
	<path fill="#333333" d="M170.488,12.288v3.173h0.079c1.413-2.424,3.652-3.637,6.721-3.637c1.359,0,2.494,0.182,3.397,0.542
		c0.906,0.362,1.643,0.864,2.201,1.51c0.56,0.646,0.954,1.414,1.182,2.304c0.227,0.891,0.338,1.877,0.338,2.961v13.164h-3.399
		V18.751c0-1.238-0.374-2.218-1.12-2.941c-0.747-0.722-1.773-1.083-3.079-1.083c-1.039,0-1.939,0.154-2.702,0.464
		c-0.759,0.312-1.391,0.75-1.898,1.317c-0.505,0.568-0.889,1.232-1.14,1.993c-0.252,0.762-0.38,1.594-0.38,2.498v11.305h-3.398
		V12.288H170.488z"/>
	<path fill="#333333" d="M198.364,12.288v2.903h-4.119v12.427c0,0.387,0.033,0.697,0.1,0.929c0.067,0.234,0.195,0.414,0.38,0.543
		c0.186,0.129,0.447,0.213,0.782,0.251c0.331,0.037,0.765,0.057,1.296,0.057h1.562v2.906h-2.6c-0.878,0-1.634-0.059-2.259-0.176
		c-0.628-0.115-1.135-0.33-1.521-0.637c-0.387-0.311-0.674-0.752-0.859-1.318c-0.188-0.566-0.28-1.315-0.28-2.245V15.191h-3.521
		v-2.903h3.521v-6h3.399v6H198.364z"/>
	<path fill="#FCA13F" d="M1.881,19.96l3.135,3.043l9.915,9.253l4.272-4.124c0.392-0.536,0.366-1.267-0.082-1.775l-3.903-3.423
		l0.014-0.002l-4.207-4.08c-0.492-0.559-0.48-1.391,0.041-1.931L22.387,5.99L17.244,1L5.03,12.795l-3.143,3.036
		C0.706,16.97,0.704,18.82,1.881,19.96z"/>
	<path fill="#248AAF" d="M35.642,25.249l-3.134-3.043l-9.916-9.256l-4.272,4.125c-0.391,0.535-0.365,1.265,0.083,1.776l3.901,3.423
		l-0.014,0.001l4.208,4.08c0.492,0.559,0.479,1.392-0.043,1.933l-11.317,10.93l5.143,4.992l12.213-11.797l3.145-3.035
		C36.817,28.239,36.82,26.389,35.642,25.249z"/>
	<ellipse fill="#333333" cx="70.678" cy="8.205" rx="1.981" ry="1.918"/>
	<ellipse fill="#333333" cx="160.31" cy="8.205" rx="1.98" ry="1.918"/>
</g>
<g id="black_on_white" display="none">
	<path display="inline" fill="#333333" d="M19.539,35.487c0.534,0.843,1.236,1.512,2.104,2.006c0.868,0.499,1.849,0.854,2.942,1.066
		c1.09,0.217,2.216,0.324,3.375,0.324c0.89,0,1.826-0.062,2.806-0.194c0.98-0.13,1.884-0.365,2.708-0.71
		c0.825-0.344,1.503-0.853,2.038-1.52c0.534-0.668,0.804-1.519,0.804-2.555c0-1.425-0.56-2.502-1.671-3.235
		c-1.115-0.731-2.506-1.326-4.178-1.779c-1.671-0.45-3.488-0.862-5.447-1.229c-1.96-0.365-3.775-0.884-5.448-1.553
		c-1.669-0.667-3.063-1.604-4.177-2.813c-1.112-1.206-1.669-2.888-1.669-5.046c0-1.682,0.389-3.125,1.167-4.332
		c0.78-1.208,1.783-2.188,3.009-2.944c1.223-0.755,2.606-1.315,4.143-1.681c1.538-0.366,3.064-0.551,4.578-0.551
		c1.962,0,3.766,0.162,5.415,0.486c1.648,0.322,3.107,0.884,4.376,1.681c1.271,0.798,2.283,1.875,3.042,3.234
		c0.757,1.357,1.203,3.052,1.334,5.078h-5.678c-0.091-1.077-0.379-1.974-0.869-2.684c-0.493-0.712-1.116-1.282-1.873-1.718
		c-0.757-0.428-1.593-0.741-2.507-0.936c-0.913-0.195-1.836-0.29-2.772-0.29c-0.847,0-1.705,0.062-2.573,0.193
		c-0.867,0.13-1.66,0.355-2.373,0.681c-0.714,0.321-1.292,0.752-1.738,1.292c-0.445,0.54-0.668,1.24-0.668,2.101
		c0,0.95,0.345,1.738,1.037,2.362c0.689,0.626,1.571,1.144,2.639,1.552c1.07,0.411,2.273,0.757,3.608,1.036
		c1.338,0.28,2.675,0.57,4.011,0.873c1.426,0.303,2.817,0.668,4.178,1.099c1.357,0.432,2.562,1.002,3.608,1.715
		c1.048,0.711,1.895,1.608,2.54,2.685c0.646,1.078,0.969,2.415,0.969,4.011c0,2.028-0.435,3.707-1.303,5.045
		c-0.869,1.337-2.005,2.418-3.408,3.234c-1.403,0.819-2.986,1.392-4.746,1.714c-1.759,0.324-3.508,0.484-5.246,0.484
		c-1.917,0-3.742-0.192-5.48-0.582c-1.738-0.387-3.275-1.023-4.61-1.908c-1.338-0.881-2.407-2.048-3.208-3.493
		c-0.803-1.445-1.249-3.203-1.338-5.271h5.682C18.712,33.625,19.004,34.648,19.539,35.487z"/>
	<rect x="48.945" y="9.518" display="inline" fill="#333333" width="5.68" height="33.443"/>
	<path display="inline" fill="#333333" d="M78.218,9.518v4.851h-6.885v20.764c0,0.646,0.057,1.165,0.166,1.552
		c0.109,0.391,0.323,0.692,0.637,0.909c0.312,0.214,0.746,0.354,1.302,0.418c0.557,0.064,1.282,0.098,2.173,0.098h2.607v4.852
		h-4.345c-1.472,0-2.729-0.097-3.776-0.291c-1.048-0.194-1.895-0.551-2.541-1.066c-0.646-0.52-1.125-1.252-1.436-2.2
		c-0.313-0.949-0.469-2.2-0.469-3.752V14.369h-5.88V9.518h5.88V-0.508h5.682V9.518H78.218z"/>
	<path display="inline" fill="#333333" d="M108.958,40.824c-2.582,1.898-5.839,2.847-9.757,2.847c-2.764,0-5.157-0.43-7.184-1.293
		c-2.028-0.861-3.733-2.072-5.112-3.621c-1.382-1.554-2.417-3.407-3.11-5.563c-0.69-2.158-1.079-4.507-1.169-7.053
		c0-2.542,0.401-4.87,1.203-6.984c0.803-2.112,1.927-3.946,3.377-5.499c1.445-1.552,3.163-2.758,5.146-3.622
		c1.982-0.862,4.152-1.293,6.515-1.293c3.077,0,5.625,0.613,7.653,1.843c2.027,1.23,3.652,2.792,4.879,4.689
		c1.225,1.897,2.071,3.971,2.54,6.21c0.467,2.244,0.656,4.377,0.568,6.405H88.643c-0.045,1.466,0.133,2.857,0.535,4.172
		c0.399,1.316,1.044,2.48,1.937,3.492c0.891,1.017,2.027,1.823,3.408,2.426c1.38,0.605,3.008,0.904,4.878,0.904
		c2.406,0,4.38-0.536,5.916-1.617c1.535-1.074,2.55-2.714,3.042-4.914h5.612C113.214,36.104,111.542,38.929,108.958,40.824z
		 M107.588,19.351c-0.511-1.163-1.202-2.167-2.071-3.007c-0.868-0.843-1.896-1.51-3.074-2.006c-1.18-0.496-2.484-0.743-3.909-0.743
		c-1.473,0-2.798,0.247-3.977,0.743c-1.182,0.496-2.194,1.173-3.041,2.036c-0.846,0.864-1.516,1.867-2.005,3.01
		c-0.489,1.142-0.779,2.358-0.868,3.652h19.849C108.4,21.742,108.1,20.516,107.588,19.351z"/>
	<path display="inline" fill="#333333" d="M126.268,9.518v4.53h0.133c0.938-1.855,2.407-3.203,4.413-4.045
		c2.006-0.842,4.211-1.26,6.616-1.26c2.674,0,5,0.475,6.983,1.424c1.982,0.947,3.632,2.231,4.944,3.847
		c1.315,1.619,2.307,3.484,2.975,5.597c0.671,2.114,1.004,4.354,1.004,6.728c0,2.372-0.323,4.614-0.972,6.728
		c-0.645,2.112-1.623,3.956-2.938,5.53c-1.312,1.573-2.965,2.814-4.945,3.719c-1.982,0.905-4.29,1.357-6.918,1.357
		c-0.846,0-1.795-0.086-2.841-0.258c-1.047-0.172-2.084-0.452-3.106-0.841c-1.025-0.387-1.996-0.915-2.908-1.586
		c-0.913-0.667-1.682-1.497-2.307-2.488h-0.133v17.205h-5.681V9.518H126.268z M146.688,21.387c-0.425-1.487-1.072-2.811-1.941-3.977
		c-0.868-1.165-1.982-2.092-3.341-2.782c-1.358-0.688-2.951-1.033-4.779-1.033c-1.914,0-3.541,0.366-4.879,1.1
		c-1.337,0.733-2.428,1.694-3.273,2.877c-0.847,1.188-1.459,2.536-1.839,4.043c-0.377,1.51-0.568,3.041-0.568,4.595
		c0,1.639,0.201,3.221,0.604,4.752c0.4,1.533,1.033,2.881,1.903,4.044c0.868,1.163,1.991,2.102,3.373,2.812
		c1.381,0.713,3.053,1.066,5.013,1.066c1.961,0,3.599-0.365,4.914-1.099c1.313-0.732,2.373-1.701,3.174-2.91
		c0.804-1.208,1.38-2.585,1.736-4.141c0.356-1.552,0.535-3.146,0.535-4.787C147.319,24.396,147.108,22.875,146.688,21.387z"/>
	<path display="inline" fill="#333333" d="M159.214,19.384c0.716-2.136,1.782-3.988,3.208-5.565
		c1.426-1.571,3.186-2.811,5.285-3.719c2.09-0.904,4.494-1.357,7.216-1.357c2.761,0,5.178,0.454,7.248,1.357
		c2.077,0.908,3.82,2.147,5.249,3.719c1.423,1.577,2.492,3.43,3.208,5.565c0.713,2.134,1.069,4.431,1.069,6.887
		c0,2.458-0.356,4.744-1.069,6.858c-0.716,2.112-1.785,3.956-3.208,5.531c-1.429,1.574-3.172,2.803-5.249,3.688
		c-2.07,0.881-4.487,1.323-7.248,1.323c-2.722,0-5.126-0.442-7.216-1.323c-2.1-0.885-3.859-2.113-5.285-3.688
		c-1.426-1.575-2.492-3.419-3.208-5.531c-0.713-2.114-1.065-4.4-1.065-6.858C158.148,23.814,158.501,21.518,159.214,19.384z
		 M164.998,31.674c0.554,1.575,1.322,2.889,2.304,3.945c0.981,1.056,2.129,1.864,3.444,2.425c1.312,0.561,2.705,0.84,4.177,0.84
		c1.468,0,2.861-0.279,4.177-0.84s2.459-1.369,3.44-2.425c0.979-1.057,1.747-2.37,2.308-3.945c0.554-1.574,0.833-3.375,0.833-5.403
		c0-2.026-0.279-3.825-0.833-5.401c-0.561-1.571-1.329-2.899-2.308-3.976c-0.981-1.077-2.125-1.897-3.44-2.46
		c-1.315-0.56-2.709-0.839-4.177-0.839c-1.472,0-2.864,0.279-4.177,0.839c-1.315,0.562-2.463,1.383-3.444,2.46
		c-0.981,1.076-1.75,2.404-2.304,3.976c-0.558,1.576-0.84,3.375-0.84,5.401C164.158,28.299,164.44,30.1,164.998,31.674z"/>
	<rect x="198.713" y="9.518" display="inline" fill="#333333" width="5.683" height="33.443"/>
	<path display="inline" fill="#333333" d="M218.562,9.518v5.302h0.133c2.361-4.051,6.104-6.078,11.23-6.078
		c2.271,0,4.167,0.304,5.677,0.905c1.517,0.605,2.744,1.445,3.678,2.522c0.937,1.08,1.594,2.363,1.973,3.849
		c0.38,1.488,0.567,3.138,0.567,4.948v21.994h-5.68V20.319c0-2.069-0.626-3.708-1.873-4.915c-1.248-1.206-2.962-1.81-5.146-1.81
		c-1.737,0-3.24,0.256-4.514,0.774c-1.267,0.52-2.326,1.253-3.172,2.199c-0.846,0.95-1.484,2.061-1.905,3.331
		c-0.422,1.273-0.636,2.664-0.636,4.174v18.888h-5.68V9.518H218.562z"/>
	<path display="inline" fill="#333333" d="M265.144,9.518v4.851h-6.882v20.764c0,0.646,0.052,1.165,0.165,1.552
		c0.113,0.391,0.324,0.692,0.635,0.909c0.312,0.214,0.749,0.354,1.306,0.418c0.555,0.064,1.28,0.098,2.168,0.098h2.608v4.852h-4.345
		c-1.468,0-2.729-0.097-3.775-0.291s-1.896-0.551-2.54-1.066c-0.645-0.52-1.125-1.252-1.436-2.2c-0.312-0.949-0.467-2.2-0.467-3.752
		V14.369h-5.884V9.518h5.884V-0.508h5.681V9.518H265.144z"/>
	<path display="inline" fill="#333333" d="M-63.171,22.338l5.239,5.085l16.568,15.464l7.138-6.891
		c0.654-0.897,0.61-2.117-0.137-2.968l-6.521-5.719l0.023-0.004l-7.029-6.816c-0.822-0.935-0.802-2.324,0.069-3.228l18.914-18.267
		l-8.594-8.338L-57.91,10.365l-5.252,5.072C-65.135,17.342-65.138,20.433-63.171,22.338z"/>
	<path display="inline" fill="#333333" d="M-6.758,31.175l-5.238-5.084l-16.568-15.467l-7.138,6.895
		c-0.654,0.895-0.611,2.114,0.138,2.967l6.52,5.719l-0.023,0.003l7.03,6.816c0.823,0.935,0.802,2.323-0.071,3.229l-18.912,18.266
		l8.595,8.34l20.407-19.713l5.254-5.068C-4.795,36.172-4.791,33.08-6.758,31.175z"/>
	<path display="inline" fill="#333333" d="M55.095,2.695c0,1.77-1.482,3.206-3.31,3.206s-3.311-1.436-3.311-3.206
		c0-1.768,1.483-3.203,3.311-3.203S55.095,0.927,55.095,2.695z"/>
	<path display="inline" fill="#333333" d="M204.865,2.695c0,1.77-1.483,3.206-3.312,3.206c-1.827,0-3.308-1.436-3.308-3.206
		c0-1.768,1.48-3.203,3.308-3.203C203.382-0.508,204.865,0.927,204.865,2.695z"/>
</g>
<g id="white_on_black" display="none">
	<rect x="-99.5" y="-40" display="inline" fill="#333333" width="399.5" height="128"/>
	<path display="inline" fill="#FFFFFF" d="M19.539,35.487c0.534,0.843,1.236,1.512,2.104,2.006c0.868,0.499,1.849,0.854,2.942,1.066
		c1.09,0.217,2.216,0.324,3.375,0.324c0.89,0,1.826-0.062,2.806-0.194c0.98-0.13,1.884-0.365,2.708-0.71
		c0.825-0.344,1.503-0.853,2.038-1.52c0.534-0.668,0.804-1.519,0.804-2.555c0-1.425-0.56-2.502-1.671-3.235
		c-1.115-0.731-2.506-1.326-4.178-1.779c-1.671-0.45-3.488-0.862-5.447-1.229c-1.96-0.365-3.775-0.884-5.448-1.553
		c-1.669-0.667-3.063-1.604-4.177-2.813c-1.112-1.206-1.669-2.888-1.669-5.046c0-1.682,0.389-3.125,1.167-4.332
		c0.78-1.208,1.783-2.188,3.009-2.944c1.223-0.755,2.606-1.315,4.143-1.681c1.538-0.366,3.064-0.551,4.578-0.551
		c1.962,0,3.766,0.162,5.415,0.486c1.648,0.322,3.107,0.884,4.376,1.681c1.271,0.798,2.283,1.875,3.042,3.234
		c0.757,1.357,1.203,3.052,1.334,5.078h-5.678c-0.091-1.077-0.379-1.974-0.869-2.684c-0.493-0.712-1.116-1.282-1.873-1.718
		c-0.757-0.428-1.593-0.741-2.507-0.936c-0.913-0.195-1.836-0.29-2.772-0.29c-0.847,0-1.705,0.062-2.573,0.193
		c-0.867,0.13-1.66,0.355-2.373,0.681c-0.714,0.321-1.292,0.752-1.738,1.292c-0.445,0.54-0.668,1.24-0.668,2.101
		c0,0.95,0.345,1.738,1.037,2.362c0.689,0.626,1.571,1.144,2.639,1.552c1.07,0.411,2.273,0.757,3.608,1.036
		c1.338,0.28,2.675,0.57,4.011,0.873c1.426,0.303,2.817,0.668,4.178,1.099c1.357,0.432,2.562,1.002,3.608,1.715
		c1.048,0.711,1.895,1.608,2.54,2.685c0.646,1.078,0.969,2.415,0.969,4.011c0,2.028-0.435,3.707-1.303,5.045
		c-0.869,1.337-2.005,2.418-3.408,3.234c-1.403,0.819-2.986,1.392-4.746,1.714c-1.759,0.324-3.508,0.484-5.246,0.484
		c-1.917,0-3.742-0.192-5.48-0.582c-1.738-0.387-3.275-1.023-4.61-1.908c-1.338-0.881-2.407-2.048-3.208-3.493
		c-0.803-1.445-1.249-3.203-1.338-5.271h5.682C18.712,33.625,19.004,34.648,19.539,35.487z"/>
	<rect x="48.945" y="9.518" display="inline" fill="#FFFFFF" width="5.68" height="33.443"/>
	<path display="inline" fill="#FFFFFF" d="M78.218,9.518v4.851h-6.885v20.764c0,0.646,0.057,1.165,0.166,1.552
		c0.109,0.391,0.323,0.692,0.637,0.909c0.312,0.214,0.746,0.354,1.302,0.418c0.557,0.064,1.282,0.098,2.173,0.098h2.607v4.852
		h-4.345c-1.472,0-2.729-0.097-3.776-0.291c-1.048-0.194-1.895-0.551-2.541-1.066c-0.646-0.52-1.125-1.252-1.436-2.2
		c-0.313-0.949-0.469-2.2-0.469-3.752V14.369h-5.88V9.518h5.88V-0.508h5.682V9.518H78.218z"/>
	<path display="inline" fill="#FFFFFF" d="M108.958,40.824c-2.582,1.898-5.839,2.847-9.757,2.847c-2.764,0-5.157-0.43-7.184-1.293
		c-2.028-0.861-3.733-2.072-5.112-3.621c-1.382-1.554-2.417-3.407-3.11-5.563c-0.69-2.158-1.079-4.507-1.169-7.053
		c0-2.542,0.401-4.87,1.203-6.984c0.803-2.112,1.927-3.946,3.377-5.499c1.445-1.552,3.163-2.758,5.146-3.622
		c1.982-0.862,4.152-1.293,6.515-1.293c3.077,0,5.625,0.613,7.653,1.843c2.027,1.23,3.652,2.792,4.879,4.689
		c1.225,1.897,2.071,3.971,2.54,6.21c0.467,2.244,0.656,4.377,0.568,6.405H88.643c-0.045,1.466,0.133,2.857,0.535,4.172
		c0.399,1.316,1.044,2.48,1.937,3.492c0.891,1.017,2.027,1.823,3.408,2.426c1.38,0.605,3.008,0.904,4.878,0.904
		c2.406,0,4.38-0.536,5.916-1.617c1.535-1.074,2.55-2.714,3.042-4.914h5.612C113.214,36.104,111.542,38.929,108.958,40.824z
		 M107.588,19.351c-0.511-1.163-1.202-2.167-2.071-3.007c-0.868-0.843-1.896-1.51-3.074-2.006c-1.18-0.496-2.484-0.743-3.909-0.743
		c-1.473,0-2.798,0.247-3.977,0.743c-1.182,0.496-2.194,1.173-3.041,2.036c-0.846,0.864-1.516,1.867-2.005,3.01
		c-0.489,1.142-0.779,2.358-0.868,3.652h19.849C108.4,21.742,108.1,20.516,107.588,19.351z"/>
	<path display="inline" fill="#FFFFFF" d="M126.268,9.518v4.53h0.133c0.938-1.855,2.407-3.203,4.413-4.045
		c2.006-0.842,4.211-1.26,6.616-1.26c2.674,0,5,0.475,6.983,1.424c1.982,0.947,3.632,2.231,4.944,3.847
		c1.315,1.619,2.307,3.484,2.975,5.597c0.671,2.114,1.004,4.354,1.004,6.728c0,2.372-0.323,4.614-0.972,6.728
		c-0.645,2.112-1.623,3.956-2.938,5.53c-1.312,1.573-2.965,2.814-4.945,3.719c-1.982,0.905-4.29,1.357-6.918,1.357
		c-0.846,0-1.795-0.086-2.841-0.258c-1.047-0.172-2.084-0.452-3.106-0.841c-1.025-0.387-1.996-0.915-2.908-1.586
		c-0.913-0.667-1.682-1.497-2.307-2.488h-0.133v17.205h-5.681V9.518H126.268z M146.688,21.387c-0.425-1.487-1.072-2.811-1.941-3.977
		c-0.868-1.165-1.982-2.092-3.341-2.782c-1.358-0.688-2.951-1.033-4.779-1.033c-1.914,0-3.541,0.366-4.879,1.1
		c-1.337,0.733-2.428,1.694-3.273,2.877c-0.847,1.188-1.459,2.536-1.839,4.043c-0.377,1.51-0.568,3.041-0.568,4.595
		c0,1.639,0.201,3.221,0.604,4.752c0.4,1.533,1.033,2.881,1.903,4.044c0.868,1.163,1.991,2.102,3.373,2.812
		c1.381,0.713,3.053,1.066,5.013,1.066c1.961,0,3.599-0.365,4.914-1.099c1.313-0.732,2.373-1.701,3.174-2.91
		c0.804-1.208,1.38-2.585,1.736-4.141c0.356-1.552,0.535-3.146,0.535-4.787C147.319,24.396,147.108,22.875,146.688,21.387z"/>
	<path display="inline" fill="#FFFFFF" d="M159.214,19.384c0.716-2.136,1.782-3.988,3.208-5.565
		c1.426-1.571,3.186-2.811,5.285-3.719c2.09-0.904,4.494-1.357,7.216-1.357c2.761,0,5.178,0.454,7.248,1.357
		c2.077,0.908,3.82,2.147,5.249,3.719c1.423,1.577,2.492,3.43,3.208,5.565c0.713,2.134,1.069,4.431,1.069,6.887
		c0,2.458-0.356,4.744-1.069,6.858c-0.716,2.112-1.785,3.956-3.208,5.531c-1.429,1.574-3.172,2.803-5.249,3.688
		c-2.07,0.881-4.487,1.323-7.248,1.323c-2.722,0-5.126-0.442-7.216-1.323c-2.1-0.885-3.859-2.113-5.285-3.688
		c-1.426-1.575-2.492-3.419-3.208-5.531c-0.713-2.114-1.065-4.4-1.065-6.858C158.148,23.814,158.501,21.518,159.214,19.384z
		 M164.998,31.674c0.554,1.575,1.322,2.889,2.304,3.945c0.981,1.056,2.129,1.864,3.444,2.425c1.312,0.561,2.705,0.84,4.177,0.84
		c1.468,0,2.861-0.279,4.177-0.84s2.459-1.369,3.44-2.425c0.979-1.057,1.747-2.37,2.308-3.945c0.554-1.574,0.833-3.375,0.833-5.403
		c0-2.026-0.279-3.825-0.833-5.401c-0.561-1.571-1.329-2.899-2.308-3.976c-0.981-1.077-2.125-1.897-3.44-2.46
		c-1.315-0.56-2.709-0.839-4.177-0.839c-1.472,0-2.864,0.279-4.177,0.839c-1.315,0.562-2.463,1.383-3.444,2.46
		c-0.981,1.076-1.75,2.404-2.304,3.976c-0.558,1.576-0.84,3.375-0.84,5.401C164.158,28.299,164.44,30.1,164.998,31.674z"/>
	<rect x="198.713" y="9.518" display="inline" fill="#FFFFFF" width="5.683" height="33.443"/>
	<path display="inline" fill="#FFFFFF" d="M218.562,9.518v5.302h0.133c2.361-4.051,6.104-6.078,11.23-6.078
		c2.271,0,4.167,0.304,5.677,0.905c1.517,0.605,2.744,1.445,3.678,2.522c0.937,1.08,1.594,2.363,1.973,3.849
		c0.38,1.488,0.567,3.138,0.567,4.948v21.994h-5.68V20.319c0-2.069-0.626-3.708-1.873-4.915c-1.248-1.206-2.962-1.81-5.146-1.81
		c-1.737,0-3.24,0.256-4.514,0.774c-1.267,0.52-2.326,1.253-3.172,2.199c-0.846,0.95-1.484,2.061-1.905,3.331
		c-0.422,1.273-0.636,2.664-0.636,4.174v18.888h-5.68V9.518H218.562z"/>
	<path display="inline" fill="#FFFFFF" d="M265.144,9.518v4.851h-6.882v20.764c0,0.646,0.052,1.165,0.165,1.552
		c0.113,0.391,0.324,0.692,0.635,0.909c0.312,0.214,0.749,0.354,1.306,0.418c0.555,0.064,1.28,0.098,2.168,0.098h2.608v4.852h-4.345
		c-1.468,0-2.729-0.097-3.775-0.291s-1.896-0.551-2.54-1.066c-0.645-0.52-1.125-1.252-1.436-2.2c-0.312-0.949-0.467-2.2-0.467-3.752
		V14.369h-5.884V9.518h5.884V-0.508h5.681V9.518H265.144z"/>
	<path display="inline" fill="#FFFFFF" d="M-63.171,22.338l5.239,5.085l16.568,15.464l7.138-6.891
		c0.654-0.897,0.61-2.117-0.137-2.968l-6.521-5.719l0.023-0.004l-7.029-6.816c-0.822-0.935-0.802-2.324,0.069-3.228l18.914-18.267
		l-8.594-8.338L-57.91,10.365l-5.252,5.072C-65.135,17.342-65.138,20.433-63.171,22.338z"/>
	<path display="inline" fill="#FFFFFF" d="M-6.758,31.175l-5.238-5.084l-16.568-15.467l-7.138,6.895
		c-0.654,0.895-0.611,2.114,0.138,2.967l6.52,5.719l-0.023,0.003l7.03,6.816c0.823,0.935,0.802,2.323-0.071,3.229l-18.912,18.266
		l8.595,8.34l20.407-19.713l5.254-5.068C-4.795,36.172-4.791,33.08-6.758,31.175z"/>
	<path display="inline" fill="#FFFFFF" d="M55.095,2.695c0,1.77-1.482,3.206-3.31,3.206s-3.311-1.436-3.311-3.206
		c0-1.768,1.483-3.203,3.311-3.203S55.095,0.927,55.095,2.695z"/>
	<path display="inline" fill="#FFFFFF" d="M204.865,2.695c0,1.77-1.483,3.206-3.312,3.206c-1.827,0-3.308-1.436-3.308-3.206
		c0-1.768,1.48-3.203,3.308-3.203C203.382-0.508,204.865,0.927,204.865,2.695z"/>
</g>
<g id="_x23_aeaeae" display="none">
	<rect x="-99.5" y="-40" display="inline" width="399.5" height="128"/>
	<path display="inline" fill="#AEAEAE" d="M19.539,35.487c0.534,0.843,1.236,1.512,2.104,2.006c0.868,0.499,1.849,0.854,2.942,1.066
		c1.09,0.217,2.216,0.324,3.375,0.324c0.89,0,1.826-0.062,2.806-0.194c0.98-0.13,1.884-0.365,2.708-0.71
		c0.825-0.344,1.503-0.853,2.038-1.52c0.534-0.668,0.804-1.519,0.804-2.555c0-1.425-0.56-2.502-1.671-3.235
		c-1.115-0.731-2.506-1.326-4.178-1.779c-1.671-0.45-3.488-0.862-5.447-1.229c-1.96-0.365-3.775-0.884-5.448-1.553
		c-1.669-0.667-3.063-1.604-4.177-2.813c-1.112-1.206-1.669-2.888-1.669-5.046c0-1.682,0.389-3.125,1.167-4.332
		c0.78-1.208,1.783-2.188,3.009-2.944c1.223-0.755,2.606-1.315,4.143-1.681c1.538-0.366,3.064-0.551,4.578-0.551
		c1.962,0,3.766,0.162,5.415,0.486c1.648,0.322,3.107,0.884,4.376,1.681c1.271,0.798,2.283,1.875,3.042,3.234
		c0.757,1.357,1.203,3.052,1.334,5.078h-5.678c-0.091-1.077-0.379-1.974-0.869-2.684c-0.493-0.712-1.116-1.282-1.873-1.718
		c-0.757-0.428-1.593-0.741-2.507-0.936c-0.913-0.195-1.836-0.29-2.772-0.29c-0.847,0-1.705,0.062-2.573,0.193
		c-0.867,0.13-1.66,0.355-2.373,0.681c-0.714,0.321-1.292,0.752-1.738,1.292c-0.445,0.54-0.668,1.24-0.668,2.101
		c0,0.95,0.345,1.738,1.037,2.362c0.689,0.626,1.571,1.144,2.639,1.552c1.07,0.411,2.273,0.757,3.608,1.036
		c1.338,0.28,2.675,0.57,4.011,0.873c1.426,0.303,2.817,0.668,4.178,1.099c1.357,0.432,2.562,1.002,3.608,1.715
		c1.048,0.711,1.895,1.608,2.54,2.685c0.646,1.078,0.969,2.415,0.969,4.011c0,2.028-0.435,3.707-1.303,5.045
		c-0.869,1.337-2.005,2.418-3.408,3.234c-1.403,0.819-2.986,1.392-4.746,1.714c-1.759,0.324-3.508,0.484-5.246,0.484
		c-1.917,0-3.742-0.192-5.48-0.582c-1.738-0.387-3.275-1.023-4.61-1.908c-1.338-0.881-2.407-2.048-3.208-3.493
		c-0.803-1.445-1.249-3.203-1.338-5.271h5.682C18.712,33.625,19.004,34.648,19.539,35.487z"/>
	<rect x="48.945" y="9.518" display="inline" fill="#AEAEAE" width="5.68" height="33.443"/>
	<path display="inline" fill="#AEAEAE" d="M78.218,9.518v4.851h-6.885v20.764c0,0.646,0.057,1.165,0.166,1.552
		c0.109,0.391,0.323,0.692,0.637,0.909c0.312,0.214,0.746,0.354,1.302,0.418c0.557,0.064,1.282,0.098,2.173,0.098h2.607v4.852
		h-4.345c-1.472,0-2.729-0.097-3.776-0.291c-1.048-0.194-1.895-0.551-2.541-1.066c-0.646-0.52-1.125-1.252-1.436-2.2
		c-0.313-0.949-0.469-2.2-0.469-3.752V14.369h-5.88V9.518h5.88V-0.508h5.682V9.518H78.218z"/>
	<path display="inline" fill="#AEAEAE" d="M108.958,40.824c-2.582,1.898-5.839,2.847-9.757,2.847c-2.764,0-5.157-0.43-7.184-1.293
		c-2.028-0.861-3.733-2.072-5.112-3.621c-1.382-1.554-2.417-3.407-3.11-5.563c-0.69-2.158-1.079-4.507-1.169-7.053
		c0-2.542,0.401-4.87,1.203-6.984c0.803-2.112,1.927-3.946,3.377-5.499c1.445-1.552,3.163-2.758,5.146-3.622
		c1.982-0.862,4.152-1.293,6.515-1.293c3.077,0,5.625,0.613,7.653,1.843c2.027,1.23,3.652,2.792,4.879,4.689
		c1.225,1.897,2.071,3.971,2.54,6.21c0.467,2.244,0.656,4.377,0.568,6.405H88.643c-0.045,1.466,0.133,2.857,0.535,4.172
		c0.399,1.316,1.044,2.48,1.937,3.492c0.891,1.017,2.027,1.823,3.408,2.426c1.38,0.605,3.008,0.904,4.878,0.904
		c2.406,0,4.38-0.536,5.916-1.617c1.535-1.074,2.55-2.714,3.042-4.914h5.612C113.214,36.104,111.542,38.929,108.958,40.824z
		 M107.588,19.351c-0.511-1.163-1.202-2.167-2.071-3.007c-0.868-0.843-1.896-1.51-3.074-2.006c-1.18-0.496-2.484-0.743-3.909-0.743
		c-1.473,0-2.798,0.247-3.977,0.743c-1.182,0.496-2.194,1.173-3.041,2.036c-0.846,0.864-1.516,1.867-2.005,3.01
		c-0.489,1.142-0.779,2.358-0.868,3.652h19.849C108.4,21.742,108.1,20.516,107.588,19.351z"/>
	<path display="inline" fill="#AEAEAE" d="M126.268,9.518v4.53h0.133c0.938-1.855,2.407-3.203,4.413-4.045
		c2.006-0.842,4.211-1.26,6.616-1.26c2.674,0,5,0.475,6.983,1.424c1.982,0.947,3.632,2.231,4.944,3.847
		c1.315,1.619,2.307,3.484,2.975,5.597c0.671,2.114,1.004,4.354,1.004,6.728c0,2.372-0.323,4.614-0.972,6.728
		c-0.645,2.112-1.623,3.956-2.938,5.53c-1.312,1.573-2.965,2.814-4.945,3.719c-1.982,0.905-4.29,1.357-6.918,1.357
		c-0.846,0-1.795-0.086-2.841-0.258c-1.047-0.172-2.084-0.452-3.106-0.841c-1.025-0.387-1.996-0.915-2.908-1.586
		c-0.913-0.667-1.682-1.497-2.307-2.488h-0.133v17.205h-5.681V9.518H126.268z M146.688,21.387c-0.425-1.487-1.072-2.811-1.941-3.977
		c-0.868-1.165-1.982-2.092-3.341-2.782c-1.358-0.688-2.951-1.033-4.779-1.033c-1.914,0-3.541,0.366-4.879,1.1
		c-1.337,0.733-2.428,1.694-3.273,2.877c-0.847,1.188-1.459,2.536-1.839,4.043c-0.377,1.51-0.568,3.041-0.568,4.595
		c0,1.639,0.201,3.221,0.604,4.752c0.4,1.533,1.033,2.881,1.903,4.044c0.868,1.163,1.991,2.102,3.373,2.812
		c1.381,0.713,3.053,1.066,5.013,1.066c1.961,0,3.599-0.365,4.914-1.099c1.313-0.732,2.373-1.701,3.174-2.91
		c0.804-1.208,1.38-2.585,1.736-4.141c0.356-1.552,0.535-3.146,0.535-4.787C147.319,24.396,147.108,22.875,146.688,21.387z"/>
	<path display="inline" fill="#AEAEAE" d="M159.214,19.384c0.716-2.136,1.782-3.988,3.208-5.565
		c1.426-1.571,3.186-2.811,5.285-3.719c2.09-0.904,4.494-1.357,7.216-1.357c2.761,0,5.178,0.454,7.248,1.357
		c2.077,0.908,3.82,2.147,5.249,3.719c1.423,1.577,2.492,3.43,3.208,5.565c0.713,2.134,1.069,4.431,1.069,6.887
		c0,2.458-0.356,4.744-1.069,6.858c-0.716,2.112-1.785,3.956-3.208,5.531c-1.429,1.574-3.172,2.803-5.249,3.688
		c-2.07,0.881-4.487,1.323-7.248,1.323c-2.722,0-5.126-0.442-7.216-1.323c-2.1-0.885-3.859-2.113-5.285-3.688
		c-1.426-1.575-2.492-3.419-3.208-5.531c-0.713-2.114-1.065-4.4-1.065-6.858C158.148,23.814,158.501,21.518,159.214,19.384z
		 M164.998,31.674c0.554,1.575,1.322,2.889,2.304,3.945c0.981,1.056,2.129,1.864,3.444,2.425c1.312,0.561,2.705,0.84,4.177,0.84
		c1.468,0,2.861-0.279,4.177-0.84s2.459-1.369,3.44-2.425c0.979-1.057,1.747-2.37,2.308-3.945c0.554-1.574,0.833-3.375,0.833-5.403
		c0-2.026-0.279-3.825-0.833-5.401c-0.561-1.571-1.329-2.899-2.308-3.976c-0.981-1.077-2.125-1.897-3.44-2.46
		c-1.315-0.56-2.709-0.839-4.177-0.839c-1.472,0-2.864,0.279-4.177,0.839c-1.315,0.562-2.463,1.383-3.444,2.46
		c-0.981,1.076-1.75,2.404-2.304,3.976c-0.558,1.576-0.84,3.375-0.84,5.401C164.158,28.299,164.44,30.1,164.998,31.674z"/>
	<rect x="198.713" y="9.518" display="inline" fill="#AEAEAE" width="5.683" height="33.443"/>
	<path display="inline" fill="#AEAEAE" d="M218.562,9.518v5.302h0.133c2.361-4.051,6.104-6.078,11.23-6.078
		c2.271,0,4.167,0.304,5.677,0.905c1.517,0.605,2.744,1.445,3.678,2.522c0.937,1.08,1.594,2.363,1.973,3.849
		c0.38,1.488,0.567,3.138,0.567,4.948v21.994h-5.68V20.319c0-2.069-0.626-3.708-1.873-4.915c-1.248-1.206-2.962-1.81-5.146-1.81
		c-1.737,0-3.24,0.256-4.514,0.774c-1.267,0.52-2.326,1.253-3.172,2.199c-0.846,0.95-1.484,2.061-1.905,3.331
		c-0.422,1.273-0.636,2.664-0.636,4.174v18.888h-5.68V9.518H218.562z"/>
	<path display="inline" fill="#AEAEAE" d="M265.144,9.518v4.851h-6.882v20.764c0,0.646,0.052,1.165,0.165,1.552
		c0.113,0.391,0.324,0.692,0.635,0.909c0.312,0.214,0.749,0.354,1.306,0.418c0.555,0.064,1.28,0.098,2.168,0.098h2.608v4.852h-4.345
		c-1.468,0-2.729-0.097-3.775-0.291s-1.896-0.551-2.54-1.066c-0.645-0.52-1.125-1.252-1.436-2.2c-0.312-0.949-0.467-2.2-0.467-3.752
		V14.369h-5.884V9.518h5.884V-0.508h5.681V9.518H265.144z"/>
	<path display="inline" fill="#AEAEAE" d="M-63.171,22.338l5.239,5.085l16.568,15.464l7.138-6.891
		c0.654-0.897,0.61-2.117-0.137-2.968l-6.521-5.719l0.023-0.004l-7.029-6.816c-0.822-0.935-0.802-2.324,0.069-3.228l18.914-18.267
		l-8.594-8.338L-57.91,10.365l-5.252,5.072C-65.135,17.342-65.138,20.433-63.171,22.338z"/>
	<path display="inline" fill="#AEAEAE" d="M-6.758,31.175l-5.238-5.084l-16.568-15.467l-7.138,6.895
		c-0.654,0.895-0.611,2.114,0.138,2.967l6.52,5.719l-0.023,0.003l7.03,6.816c0.823,0.935,0.802,2.323-0.071,3.229l-18.912,18.266
		l8.595,8.34l20.407-19.713l5.254-5.068C-4.795,36.172-4.791,33.08-6.758,31.175z"/>
	<path display="inline" fill="#AEAEAE" d="M55.095,2.695c0,1.77-1.482,3.206-3.31,3.206s-3.311-1.436-3.311-3.206
		c0-1.768,1.483-3.203,3.311-3.203S55.095,0.927,55.095,2.695z"/>
	<path display="inline" fill="#AEAEAE" d="M204.865,2.695c0,1.77-1.483,3.206-3.312,3.206c-1.827,0-3.308-1.436-3.308-3.206
		c0-1.768,1.48-3.203,3.308-3.203C203.382-0.508,204.865,0.927,204.865,2.695z"/>
</g>
</svg>
