<?xml version="1.0" encoding="utf-8"?>
<!-- Generator: Adobe Illustrator 18.0.0, SVG Export Plug-In . SVG Version: 6.00 Build 0)  -->
<!DOCTYPE svg PUBLIC "-//W3C//DTD SVG 1.1//EN" "http://www.w3.org/Graphics/SVG/1.1/DTD/svg11.dtd">
<svg version="1.1" id="Layer_1" xmlns="http://www.w3.org/2000/svg" xmlns:xlink="http://www.w3.org/1999/xlink" x="0px" y="0px"
	 viewBox="0 0 1024 768" enable-background="new 0 0 1024 768" xml:space="preserve">
<rect x="-0.7" fill="#DA542D" width="1024" height="768"/>
<g>
	<path fill="#FFFFFF" d="M273.1,595.4c0-1.6-0.6-3-1.7-4.1c-1.1-1.1-2.5-1.7-4.1-1.7h-30.9c-1.6,0-3,0.6-4.1,1.7
		c-1.1,1.1-1.7,2.5-1.7,4.1c0,1.5,0.6,2.9,1.7,4c1.1,1.1,2.5,1.7,4.1,1.7h30.9c3.6,0,6.9,0.7,10.2,2.2c3.2,1.4,6.1,3.5,8.5,6.2
		c4.3,4.8,6.5,10.4,6.5,16.8c0,3.5-0.7,6.8-2,9.8c-1.3,3.1-3.1,5.7-5.4,8c-2.3,2.3-5,4.1-8,5.4c-3.1,1.3-6.3,2-9.8,2h-30.9
		c-3.1,0-6-0.5-8.8-1.6c-2.7-1.1-5.2-2.5-7.4-4.4c-2.2-1.9-4.1-4.1-5.6-6.6c-1.5-2.6-2.5-5.3-3-8.4c-0.1-0.7-0.3-1.4-0.3-2.1
		c-0.1-0.7-0.1-1.4-0.1-2.2h19.4c0,1.6,0.6,3,1.7,4.1c1.1,1.1,2.5,1.7,4.1,1.7h30.9c1.6,0,3-0.6,4.1-1.7c1.1-1.1,1.7-2.5,1.7-4.1
		c0-1.6-0.6-2.9-1.7-4.1c-1.1-1.2-2.5-1.7-4.1-1.7h-30.9c-3.6,0-7-0.7-10.2-2.1c-3.2-1.4-6.1-3.5-8.5-6.2
		c-4.3-4.8-6.5-10.4-6.5-16.7c0-3.5,0.7-6.8,2-9.8c1.3-3.1,3.1-5.7,5.4-8c2.3-2.3,5-4.1,8-5.4c3.1-1.3,6.3-2,9.8-2h30.9
		c3.5,0,6.8,0.7,9.8,2c3.1,1.3,5.7,3.1,8,5.4c2.3,2.3,4.1,5,5.4,8c1.3,3.1,2,6.3,2,9.8H273.1z"/>
</g>
<g>
	<polygon fill="#FFFFFF" points="400,570.2 358.9,614.6 358.9,651.5 339.5,651.5 339.5,614.6 298.2,570.2 324.6,570.2 349.1,596.7 
		373.6,570.2 	"/>
</g>
<g>
	<path fill="#FFFFFF" d="M461.2,570.2c3.5,0,6.8,0.7,9.8,2c3.1,1.3,5.7,3.1,8,5.4c2.3,2.3,4.1,5,5.4,8c1.3,3.1,2,6.3,2,9.8v30.9
		c0,3.5-0.7,6.7-2,9.8c-1.3,3.1-3.1,5.7-5.4,8c-2.3,2.3-5,4.1-8,5.4c-3.1,1.3-6.3,2-9.8,2h-56.1v-81.3H461.2z M424.5,632.1h36.7
		c1.6,0,3-0.6,4.1-1.7c1.1-1.1,1.7-2.5,1.7-4.1v-30.9c0-1.6-0.6-3-1.7-4.1c-1.1-1.1-2.5-1.7-4.1-1.7h-36.7V632.1z"/>
</g>
<g>
	<rect x="507.7" y="632.7" fill="#FAA441" width="18.9" height="18.8"/>
</g>
<g>
	<path fill="#FFFFFF" d="M619.4,572.2c3.1,1.3,5.7,3.1,8,5.4c2.3,2.3,4.1,5,5.4,8c1.3,3.1,2,6.3,2,9.8v9.6h-19.4v-9.6
		c0-1.6-0.6-3-1.7-4.1c-1.1-1.1-2.5-1.7-4.1-1.7h-30.9c-1.6,0-3,0.6-4.1,1.7c-1.1,1.1-1.7,2.5-1.7,4.1v30.9c0,1.6,0.6,3,1.7,4.1
		c1.1,1.1,2.5,1.7,4.1,1.7h30.9c1.6,0,3-0.6,4.1-1.7c1.1-1.1,1.7-2.5,1.7-4.1v-9.6h19.4v9.6c0,3.5-0.7,6.7-2,9.8
		c-1.3,3.1-3.1,5.7-5.4,8c-2.3,2.3-5,4.1-8,5.4c-3.1,1.3-6.3,2-9.8,2h-30.9c-3.5,0-6.8-0.7-9.8-2c-3.1-1.3-5.7-3.1-8-5.4
		c-2.3-2.3-4.1-5-5.4-8c-1.3-3.1-2-6.3-2-9.8v-30.9c0-3.5,0.7-6.8,2-9.8c1.3-3.1,3.1-5.7,5.4-8c2.3-2.3,5-4.1,8-5.4
		c3.1-1.3,6.3-2,9.8-2h30.9C613.1,570.2,616.3,570.9,619.4,572.2"/>
</g>
<g>
	<path fill="#FFFFFF" d="M712.9,595.4c0-1.6-0.6-3-1.7-4.1c-1.1-1.1-2.5-1.7-4.1-1.7h-30.9c-1.6,0-3,0.6-4.1,1.7
		c-1.1,1.1-1.7,2.5-1.7,4.1c0,1.5,0.6,2.9,1.7,4c1.1,1.1,2.5,1.7,4.1,1.7h30.9c3.6,0,6.9,0.7,10.2,2.2c3.2,1.4,6.1,3.5,8.5,6.2
		c4.3,4.8,6.5,10.4,6.5,16.8c0,3.5-0.7,6.8-2,9.8c-1.3,3.1-3.1,5.7-5.4,8c-2.3,2.3-5,4.1-8,5.4c-3.1,1.3-6.3,2-9.8,2h-30.9
		c-3.1,0-6-0.5-8.8-1.6c-2.7-1.1-5.2-2.5-7.4-4.4c-2.2-1.9-4.1-4.1-5.6-6.6c-1.5-2.6-2.5-5.3-3-8.4c-0.1-0.7-0.3-1.4-0.3-2.1
		c-0.1-0.7-0.1-1.4-0.1-2.2h19.4c0,1.6,0.6,3,1.7,4.1c1.1,1.1,2.5,1.7,4.1,1.7h30.9c1.6,0,3-0.6,4.1-1.7c1.1-1.1,1.7-2.5,1.7-4.1
		c0-1.6-0.6-2.9-1.7-4.1c-1.1-1.2-2.5-1.7-4.1-1.7h-30.9c-3.6,0-7-0.7-10.2-2.1c-3.2-1.4-6.1-3.5-8.5-6.2
		c-4.3-4.8-6.5-10.4-6.5-16.7c0-3.5,0.7-6.8,2-9.8c1.3-3.1,3.1-5.7,5.4-8c2.3-2.3,5-4.1,8-5.4c3.1-1.3,6.3-2,9.8-2h30.9
		c3.5,0,6.8,0.7,9.8,2c3.1,1.3,5.7,3.1,8,5.4c2.3,2.3,4.1,5,5.4,8c1.3,3.1,2,6.3,2,9.8H712.9z"/>
</g>
<g>
	<path fill="#FFFFFF" d="M810.5,595.4c0-1.6-0.6-3-1.7-4.1c-1.1-1.1-2.5-1.7-4.1-1.7h-30.9c-1.6,0-3,0.6-4.1,1.7
		c-1.1,1.1-1.7,2.5-1.7,4.1c0,1.5,0.6,2.9,1.7,4c1.1,1.1,2.5,1.7,4.1,1.7h30.9c3.6,0,6.9,0.7,10.2,2.2c3.2,1.4,6.1,3.5,8.5,6.2
		c4.3,4.8,6.5,10.4,6.5,16.8c0,3.5-0.7,6.8-2,9.8c-1.3,3.1-3.1,5.7-5.4,8c-2.3,2.3-5,4.1-8,5.4c-3.1,1.3-6.3,2-9.8,2h-30.9
		c-3.1,0-6-0.5-8.8-1.6c-2.7-1.1-5.2-2.5-7.4-4.4c-2.2-1.9-4.1-4.1-5.6-6.6c-1.5-2.6-2.5-5.3-3-8.4c-0.1-0.7-0.3-1.4-0.3-2.1
		c-0.1-0.7-0.1-1.4-0.1-2.2H768c0,1.6,0.6,3,1.7,4.1c1.1,1.1,2.5,1.7,4.1,1.7h30.9c1.6,0,3-0.6,4.1-1.7c1.1-1.1,1.7-2.5,1.7-4.1
		c0-1.6-0.6-2.9-1.7-4.1c-1.1-1.2-2.5-1.7-4.1-1.7h-30.9c-3.6,0-7-0.7-10.2-2.1c-3.2-1.4-6.1-3.5-8.5-6.2
		c-4.3-4.8-6.5-10.4-6.5-16.7c0-3.5,0.7-6.8,2-9.8c1.3-3.1,3.1-5.7,5.4-8c2.3-2.3,5-4.1,8-5.4c3.1-1.3,6.3-2,9.8-2h30.9
		c3.5,0,6.8,0.7,9.8,2c3.1,1.3,5.7,3.1,8,5.4c2.3,2.3,4.1,5,5.4,8c1.3,3.1,2,6.3,2,9.8H810.5z"/>
</g>
<g>
	<rect x="469.4" y="287.7" fill="#FFFFFF" width="79.3" height="87.2"/>
</g>
<g>
	<path fill="#FFFFFF" d="M424.5,158.7h-6.1v-25.5c0-10.5,9.2-19,20.6-19v6.1c-8,0-14.5,5.8-14.5,12.9V158.7z"/>
</g>
<g>
	<path fill="#FFFFFF" d="M439,251.4c-11.3,0-20.6-8.5-20.6-19v-21.5h6.1v21.5c0,7.1,6.5,12.9,14.5,12.9V251.4z"/>
</g>
<g>
	<rect x="470" y="245.3" fill="#FFFFFF" width="76.8" height="6.1"/>
</g>
<g>
	<rect x="485.2" y="266.9" fill="#FFFFFF" width="45.6" height="16.4"/>
</g>
<g>
	<rect x="474.3" y="383.8" fill="#FFFFFF" width="21.8" height="57.1"/>
</g>
<g>
	<rect x="521.9" y="383.8" fill="#FFFFFF" width="21.8" height="57.1"/>
</g>
<g>
	<polygon fill="#FFFFFF" points="465.4,287.7 465.4,325.8 447.7,356.9 432.7,349.1 447.1,323.3 447.1,297.6 	"/>
</g>
<g>
	<rect x="469.4" y="448.4" fill="#FFFFFF" width="32" height="14.9"/>
</g>
<g>
	<path fill="#FCFCFC" d="M443.4,382.8L438,380c3.7-7.2,2.2-15.4-3.2-18.2c-2.7-1.4-5.5-1-7.3-0.4c-3.8,1.2-7.2,4.3-9.3,8.4l-5.4-2.8
		c2.8-5.5,7.5-9.7,12.8-11.4c4.2-1.3,8.4-1.1,12,0.8C446,360.8,448.6,372.6,443.4,382.8z"/>
</g>
<g>
	<rect x="516.9" y="448.4" fill="#FFFFFF" width="31.7" height="14.9"/>
</g>
<g>
	<polygon fill="#FFFFFF" points="552.4,287.7 552.4,325.8 570.1,356.9 585.1,349.1 570.7,323.3 570.7,297.6 	"/>
</g>
<g>
	<path fill="#FCFCFC" d="M574.4,382.8c-5.2-10.2-2.6-22,5.9-26.4c8.5-4.3,19.6,0.4,24.8,10.6l-5.4,2.8c-3.7-7.2-11.2-10.8-16.6-8
		c-5.5,2.8-6.9,11-3.2,18.2L574.4,382.8z"/>
</g>
<g>
	<path fill="#FFFFFF" d="M414.3,204.7c-10.2,0-18.5-9.1-18.5-20.4c0-11.3,8.3-20.4,18.5-20.4"/>
</g>
<g>
	<path fill="#FFFFFF" d="M601.3,204.7c10.2,0,18.5-9.1,18.5-20.4c0-11.3-8.3-20.4-18.5-20.4"/>
</g>
<g>
	<path fill="#FFFFFF" d="M598.5,158.7h-6.1v-25.5c0-7.1-6.5-12.9-14.5-12.9v-6.1c11.3,0,20.6,8.5,20.6,19V158.7z"/>
</g>
<g>
	<path fill="#FFFFFF" d="M578,251.4v-6.1c8,0,14.5-5.8,14.5-12.9v-21.5h6.1v21.5C598.5,242.9,589.3,251.4,578,251.4z"/>
</g>
<g>
	<path fill="#FFFFFF" d="M438.3,231h139.9v-94.5H438.3V231z M468.4,196.5c-6.7,0-12.2-5.4-12.2-12.1c0-6.7,5.4-12.2,12.2-12.2
		s12.2,5.4,12.2,12.2C480.6,191.1,475.1,196.5,468.4,196.5 M548.8,196.5c-6.7,0-12.2-5.4-12.2-12.1c0-6.7,5.4-12.2,12.2-12.2
		c6.7,0,12.2,5.4,12.2,12.2C561,191.1,555.5,196.5,548.8,196.5"/>
</g>
<g>
	<polygon fill="#FFFFFF" points="525.2,482.3 543.7,482.3 543.7,506.7 	"/>
</g>
<g>
	<path fill="#FFFFFF" d="M545.6,512.4l-24.4-32h24.4V512.4z M529.1,484.3l12.7,16.7v-16.7H529.1z"/>
</g>
<g>
	<polygon fill="#FFFFFF" points="488.8,136.5 507.5,158.7 524.7,136.5 507.5,87.4 	"/>
</g>
<g>
	<path fill="#FFFFFF" d="M443.1,136.4c-0.2,0-0.3,0-0.5,0c-1.2-0.3-2-1.5-1.8-2.7l6-28.3c0.2-0.9,0.9-1.6,1.8-1.8l60-10.3
		c1.2-0.2,2.4,0.6,2.6,1.9c0.2,1.2-0.6,2.4-1.9,2.6L451,107.8l-5.6,26.8C445.1,135.6,444.1,136.4,443.1,136.4z"/>
</g>
<g>
	<path fill="#FFFFFF" d="M574.4,136.4c-1.1,0-2-0.7-2.2-1.8l-5.6-26.8L508,97.7c-1.2-0.2-2.1-1.4-1.9-2.6c0.2-1.2,1.4-2.1,2.6-1.9
		l60,10.3c0.9,0.2,1.7,0.9,1.9,1.8l6,28.3c0.3,1.2-0.5,2.4-1.8,2.7C574.7,136.4,574.5,136.4,574.4,136.4z"/>
</g>
</svg>
