<?xml version="1.0" encoding="UTF-8" standalone="no"?>
<svg width="72px" height="34px" xmlns="http://www.w3.org/2000/svg" version="1.1">
    <title></title>
    <description>Created with Sketch (http://www.bohemiancoding.com/sketch)</description>
    <defs>
        <linearGradient id="gradient-1" x1="50%" y1="0%" x2="50%" y2="100%">
            <stop offset="0%" style="stop-color:rgb(255,255,255); stop-opacity:100"></stop>
            <stop offset="100%" style="stop-color:rgb(0,0,0); stop-opacity:100"></stop>
        </linearGradient>
        <linearGradient id="gradient-2" x1="50%" y1="0%" x2="50%" y2="100%">
            <stop offset="0%" style="stop-color:rgb(255,255,255); stop-opacity:100"></stop>
            <stop offset="100%" style="stop-color:rgb(0,0,0); stop-opacity:100"></stop>
        </linearGradient>
        <linearGradient id="gradient-3" x1="50%" y1="0%" x2="50%" y2="100%">
            <stop offset="0%" style="stop-color:rgb(255,255,255); stop-opacity:100"></stop>
            <stop offset="100%" style="stop-color:rgb(0,0,0); stop-opacity:100"></stop>
        </linearGradient>
    </defs>
    <g fill="rgb(215,215,215)" id="Page 1">
        <g fill="rgb(245,245,245)" id="Shape"></g>
        <path id="Shape" d="M71,1 C70,0 68,0 66,0 L36,26 L5,0 C3,0 1,0 0,1 C0,2 0,4 1,5 L33,33 C34,33 35,33 36,33 C36,33 37,33 38,33 L70,5 C72,4 72,2 71,1 C71,1 72,2 71,1 L71,1" fill="rgb(245,245,245)"></path>
        <path id="Shape decoration" d="" fill="rgb(245,245,245)"></path>
    </g>
</svg>