<?xml version="1.0" encoding="UTF-8"?>
<!DOCTYPE svg PUBLIC "-//W3C//DTD SVG 1.1//EN" "http://www.w3.org/Graphics/SVG/1.1/DTD/svg11.dtd">
<svg version="1.1" xmlns="http://www.w3.org/2000/svg" xmlns:xlink="http://www.w3.org/1999/xlink" x="0" y="0" width="32.579" height="31.775" viewBox="0, 0, 32.579, 31.775">
  <g id="Layer_1" transform="translate(-83.421, -83.225)">
    <path d="M99.709,83.225 C90.714,83.225 83.421,90.518 83.421,99.515 C83.421,106.712 88.088,112.817 94.561,114.972 C95.376,115.121 95.673,114.618 95.673,114.186 C95.673,113.8 95.659,112.775 95.651,111.416 C91.12,112.4 90.164,109.232 90.164,109.232 C89.423,107.351 88.355,106.85 88.355,106.85 C86.876,105.839 88.467,105.859 88.467,105.859 C90.102,105.975 90.962,107.538 90.962,107.538 C92.415,110.027 94.775,109.308 95.703,108.892 C95.851,107.839 96.271,107.121 96.737,106.714 C93.12,106.303 89.317,104.905 89.317,98.663 C89.317,96.885 89.952,95.431 90.994,94.292 C90.826,93.88 90.267,92.224 91.153,89.981 C91.153,89.981 92.521,89.543 95.633,91.651 C96.932,91.29 98.326,91.109 99.711,91.103 C101.094,91.109 102.488,91.29 103.789,91.651 C106.899,89.543 108.264,89.981 108.264,89.981 C109.153,92.224 108.594,93.88 108.426,94.292 C109.47,95.431 110.101,96.885 110.101,98.663 C110.101,104.921 106.292,106.298 102.663,106.701 C103.248,107.204 103.769,108.198 103.769,109.718 C103.769,111.895 103.749,113.652 103.749,114.186 C103.749,114.622 104.042,115.129 104.869,114.97 C111.337,112.811 116,106.71 116,99.515 C116,90.518 108.706,83.225 99.709,83.225" fill="#FFFFFF"/>
  </g>
</svg>
