<?xml version="1.0" encoding="UTF-8"?>
<!DOCTYPE svg PUBLIC "-//W3C//DTD SVG 1.1//EN" "http://www.w3.org/Graphics/SVG/1.1/DTD/svg11.dtd">
<svg version="1.1" xmlns="http://www.w3.org/2000/svg" xmlns:xlink="http://www.w3.org/1999/xlink" x="0" y="0" width="180" height="70" viewBox="0, 0, 180, 70">
  <g id="Layer_1">
    <path d="M27.92,14.569 C30.11,17.768 29.294,22.138 26.093,24.329 L22.693,26.655 L17.41,30.272 C17.408,30.274 17.406,30.275 17.406,30.275 C15.804,31.371 15.395,33.555 16.49,35.155 C17.586,36.756 19.772,37.165 21.37,36.067 L21.371,36.069 L27.165,32.106 C29.355,35.305 28.536,39.674 25.338,41.865 L25.336,41.861 C20.538,45.145 13.984,43.921 10.699,39.12 C7.414,34.323 8.64,27.77 13.438,24.483 C13.443,24.481 13.446,24.48 13.449,24.475 L22.128,18.536 L27.92,14.569 z" fill="#114E7E"/>
    <path d="M32.956,28.139 L32.956,28.139 L32.951,28.141 C32.938,28.152 32.927,28.16 32.914,28.171 L32.956,28.141 C29.758,30.332 28.94,34.698 31.129,37.897 L36.922,33.932 L36.921,33.931 C38.52,32.836 40.706,33.242 41.799,34.844 C42.895,36.44 42.487,38.628 40.886,39.723 L35.599,43.342 L32.198,45.673 C28.997,47.861 28.182,52.231 30.371,55.431 L44.853,45.515 L44.853,45.514 C49.651,42.229 50.879,35.678 47.594,30.879 C44.308,26.08 37.754,24.853 32.956,28.139" fill="#114E7E"/>
    <path d="M64.614,38.993 C64.614,38.479 64.425,38.061 64.048,37.739 C63.668,37.418 63.194,37.122 62.624,36.859 C62.053,36.592 61.433,36.319 60.767,36.037 C60.1,35.758 59.481,35.411 58.912,35.001 C58.34,34.59 57.863,34.08 57.487,33.47 C57.109,32.859 56.92,32.077 56.92,31.131 C56.92,30.309 57.057,29.599 57.331,28.995 C57.604,28.392 57.994,27.891 58.501,27.489 C59.005,27.088 59.606,26.79 60.297,26.595 C60.988,26.404 61.763,26.307 62.612,26.307 C63.594,26.307 64.519,26.391 65.385,26.558 C66.254,26.729 66.971,26.974 67.531,27.297 L66.496,30.069 C66.142,29.845 65.609,29.64 64.903,29.454 C64.195,29.271 63.431,29.176 62.612,29.176 C61.84,29.176 61.25,29.33 60.84,29.635 C60.43,29.94 60.225,30.351 60.225,30.867 C60.225,31.348 60.414,31.749 60.79,32.071 C61.171,32.392 61.642,32.689 62.216,32.965 C62.785,33.235 63.405,33.518 64.071,33.809 C64.739,34.096 65.356,34.446 65.929,34.856 C66.498,35.266 66.974,35.772 67.353,36.376 C67.73,36.979 67.918,37.73 67.918,38.632 C67.918,39.532 67.77,40.305 67.473,40.957 C67.173,41.608 66.757,42.151 66.218,42.586 C65.678,43.021 65.027,43.342 64.264,43.551 C63.502,43.759 62.66,43.867 61.745,43.867 C60.537,43.867 59.478,43.753 58.561,43.527 C57.643,43.302 56.968,43.077 56.535,42.852 L57.597,40.03 C57.772,40.126 58.002,40.23 58.284,40.342 C58.565,40.456 58.883,40.56 59.237,40.656 C59.588,40.754 59.963,40.832 60.356,40.896 C60.751,40.963 61.158,40.994 61.575,40.994 C62.556,40.994 63.308,40.829 63.831,40.498 C64.353,40.171 64.614,39.666 64.614,38.993" fill="#82958C"/>
    <path d="M69.583,31.467 L72.717,31.467 L72.717,43.527 L69.583,43.527 z M69.125,28.067 C69.125,27.601 69.297,27.203 69.642,26.873 C69.989,26.546 70.466,26.381 71.077,26.381 C71.688,26.381 72.183,26.546 72.562,26.873 C72.941,27.203 73.127,27.601 73.127,28.067 C73.127,28.535 72.941,28.924 72.562,29.236 C72.183,29.551 71.688,29.71 71.077,29.71 C70.466,29.71 69.989,29.551 69.642,29.236 C69.297,28.924 69.125,28.535 69.125,28.067" fill="#82958C"/>
    <path d="M78.313,39.476 C78.313,40.037 78.385,40.449 78.529,40.704 C78.674,40.963 78.908,41.092 79.23,41.092 C79.422,41.092 79.609,41.076 79.795,41.043 C79.98,41.011 80.21,40.938 80.483,40.825 L80.82,43.285 C80.563,43.413 80.169,43.545 79.639,43.673 C79.109,43.8 78.56,43.867 78,43.867 C77.083,43.867 76.383,43.653 75.901,43.225 C75.418,42.799 75.177,42.097 75.177,41.116 L75.177,26.643 L78.313,26.643 L78.313,39.476" fill="#82958C"/>
    <path d="M85.621,37.786 L86.031,39.644 L86.151,39.644 L86.489,37.739 L88.538,31.467 L91.915,31.467 L86.876,43.647 L84.968,43.647 L79.735,31.467 L83.377,31.467 L85.621,37.786" fill="#82958C"/>
    <path d="M97.231,33.638 C96.417,33.638 95.811,33.883 95.42,34.374 C95.028,34.864 94.794,35.518 94.711,36.34 L99.175,36.34 C99.24,35.471 99.108,34.805 98.779,34.34 C98.451,33.871 97.936,33.638 97.231,33.638 z M101.708,42.489 C101.227,42.875 100.57,43.2 99.741,43.466 C98.914,43.732 98.031,43.867 97.101,43.867 C95.155,43.867 93.731,43.299 92.832,42.165 C91.931,41.03 91.481,39.475 91.481,37.497 C91.481,35.375 91.988,33.782 93.001,32.721 C94.013,31.661 95.438,31.131 97.268,31.131 C97.881,31.131 98.476,31.211 99.054,31.372 C99.633,31.532 100.148,31.799 100.597,32.167 C101.048,32.536 101.409,33.035 101.683,33.662 C101.956,34.289 102.093,35.069 102.093,36.003 C102.093,36.34 102.073,36.701 102.034,37.086 C101.993,37.473 101.933,37.877 101.853,38.292 L94.641,38.292 C94.688,39.305 94.95,40.069 95.422,40.584 C95.895,41.099 96.66,41.354 97.717,41.354 C98.374,41.354 98.963,41.257 99.483,41.055 C100.005,40.854 100.401,40.647 100.674,40.44 L101.708,42.489" fill="#82958C"/>
    <path d="M110.246,34.41 C109.746,34.232 109.295,34.146 108.893,34.146 C108.331,34.146 107.859,34.293 107.484,34.59 C107.105,34.888 106.851,35.271 106.723,35.736 L106.723,43.527 L103.588,43.527 L103.588,31.467 L106.023,31.467 L106.384,33.058 L106.481,33.058 C106.754,32.466 107.124,32.007 107.591,31.685 C108.058,31.364 108.604,31.202 109.23,31.202 C109.649,31.202 110.125,31.29 110.653,31.467 L110.246,34.41" fill="#82958C"/>
    <path d="M119.625,39.233 C119.625,38.559 119.427,38.007 119.024,37.58 C118.621,37.157 118.118,36.777 117.515,36.449 C116.912,36.118 116.258,35.809 115.55,35.519 C114.842,35.23 114.187,34.881 113.586,34.47 C112.982,34.06 112.478,33.553 112.077,32.951 C111.676,32.349 111.475,31.58 111.475,30.646 C111.475,29.33 111.934,28.285 112.849,27.513 C113.765,26.741 115.069,26.355 116.755,26.355 C117.736,26.355 118.63,26.427 119.435,26.572 C120.236,26.716 120.864,26.9 121.313,27.127 L120.711,28.887 C120.342,28.709 119.796,28.542 119.085,28.382 C118.367,28.22 117.558,28.139 116.66,28.139 C115.6,28.139 114.802,28.378 114.272,28.851 C113.742,29.326 113.477,29.885 113.477,30.528 C113.477,31.153 113.677,31.676 114.078,32.095 C114.48,32.513 114.982,32.887 115.586,33.216 C116.188,33.548 116.844,33.871 117.552,34.192 C118.258,34.514 118.913,34.888 119.518,35.313 C120.12,35.741 120.623,36.252 121.025,36.845 C121.427,37.441 121.627,38.18 121.627,39.064 C121.627,39.787 121.499,40.44 121.24,41.019 C120.984,41.596 120.607,42.096 120.107,42.513 C119.609,42.931 119.006,43.253 118.298,43.479 C117.592,43.704 116.789,43.815 115.888,43.815 C114.682,43.815 113.685,43.721 112.897,43.538 C112.108,43.354 111.498,43.149 111.064,42.924 L111.739,41.116 C112.108,41.324 112.655,41.528 113.379,41.729 C114.102,41.93 114.916,42.032 115.816,42.032 C116.346,42.032 116.844,41.979 117.311,41.874 C117.777,41.77 118.18,41.6 118.517,41.368 C118.855,41.136 119.123,40.843 119.324,40.488 C119.526,40.135 119.625,39.716 119.625,39.233" fill="#82958C"/>
    <path d="M122.303,31.467 L124.185,31.467 L124.185,29.08 L126.114,28.525 L126.114,31.467 L129.393,31.467 L129.393,33.157 L126.114,33.157 L126.114,39.837 C126.114,40.674 126.218,41.264 126.427,41.608 C126.636,41.955 126.99,42.129 127.489,42.129 C127.907,42.129 128.26,42.085 128.549,41.994 C128.837,41.908 129.16,41.79 129.513,41.645 L129.948,43.117 C129.513,43.326 129.041,43.494 128.527,43.622 C128.009,43.753 127.456,43.815 126.859,43.815 C125.88,43.815 125.19,43.538 124.787,42.984 C124.384,42.428 124.185,41.502 124.185,40.199 L124.185,33.157 L122.303,33.157 L122.303,31.467" fill="#82958C"/>
    <path d="M137.039,33.326 C136.557,33.165 136.097,33.085 135.663,33.085 C134.973,33.085 134.425,33.273 134.024,33.651 C133.621,34.03 133.373,34.507 133.275,35.086 L133.275,43.528 L131.348,43.528 L131.348,31.468 L132.697,31.468 L133.059,32.938 L133.156,32.938 C133.46,32.392 133.827,31.971 134.253,31.674 C134.679,31.376 135.22,31.227 135.881,31.227 C136.347,31.227 136.87,31.308 137.447,31.468 L137.039,33.326" fill="#82958C"/>
    <path d="M139.234,31.467 L141.162,31.467 L141.162,43.527 L139.234,43.527 z M138.823,27.803 C138.823,27.433 138.948,27.116 139.196,26.85 C139.447,26.585 139.764,26.451 140.15,26.451 C140.537,26.451 140.865,26.585 141.139,26.85 C141.414,27.116 141.548,27.433 141.548,27.803 C141.548,28.173 141.414,28.478 141.139,28.718 C140.865,28.961 140.537,29.08 140.15,29.08 C139.764,29.08 139.447,28.961 139.196,28.718 C138.948,28.478 138.823,28.173 138.823,27.803" fill="#82958C"/>
    <path d="M149.435,32.867 C148.616,32.867 147.967,33.081 147.494,33.507 C147.019,33.931 146.685,34.579 146.492,35.449 L146.492,41.429 C146.781,41.653 147.112,41.827 147.482,41.946 C147.852,42.067 148.34,42.129 148.952,42.129 C150.063,42.129 150.944,41.715 151.595,40.887 C152.244,40.057 152.57,38.841 152.57,37.231 C152.57,36.574 152.513,35.973 152.401,35.435 C152.29,34.896 152.107,34.438 151.857,34.06 C151.609,33.682 151.287,33.389 150.894,33.18 C150.501,32.971 150.015,32.867 149.435,32.867 z M144.563,31.467 L145.89,31.467 L146.252,32.915 L146.348,32.915 C146.717,32.353 147.196,31.922 147.782,31.625 C148.371,31.327 149.041,31.178 149.796,31.178 C151.405,31.178 152.604,31.652 153.392,32.602 C154.178,33.55 154.571,35.102 154.571,37.257 C154.571,38.269 154.439,39.18 154.175,39.993 C153.909,40.805 153.537,41.493 153.053,42.055 C152.57,42.618 151.987,43.053 151.304,43.356 C150.621,43.663 149.861,43.815 149.024,43.815 C148.429,43.815 147.96,43.779 147.614,43.708 C147.267,43.635 146.896,43.511 146.492,43.333 L146.492,48.351 L144.563,48.351 L144.563,31.467" fill="#82958C"/>
    <path d="M161.541,32.867 C160.592,32.867 159.832,33.117 159.262,33.614 C158.692,34.114 158.35,34.965 158.236,36.171 L164.218,36.171 C164.218,34.95 163.986,34.094 163.518,33.603 C163.051,33.114 162.393,32.867 161.541,32.867 z M165.69,42.562 C165.207,42.949 164.6,43.253 163.869,43.479 C163.138,43.704 162.362,43.815 161.541,43.815 C160.625,43.815 159.829,43.669 159.153,43.37 C158.479,43.072 157.922,42.646 157.488,42.091 C157.056,41.536 156.734,40.873 156.525,40.102 C156.316,39.33 156.212,38.463 156.212,37.497 C156.212,35.439 156.668,33.871 157.586,32.794 C158.502,31.717 159.814,31.178 161.518,31.178 C162.065,31.178 162.61,31.24 163.156,31.359 C163.704,31.481 164.194,31.71 164.628,32.048 C165.061,32.384 165.416,32.864 165.69,33.483 C165.963,34.102 166.1,34.918 166.1,35.931 C166.1,36.461 166.05,37.049 165.955,37.69 L158.214,37.69 C158.214,38.398 158.286,39.024 158.429,39.572 C158.576,40.118 158.8,40.58 159.106,40.957 C159.411,41.337 159.809,41.625 160.3,41.827 C160.789,42.028 161.389,42.129 162.096,42.129 C162.644,42.129 163.19,42.032 163.735,41.84 C164.281,41.645 164.693,41.422 164.966,41.164 L165.69,42.562" fill="#82958C"/>
    <path d="M168.488,27.908 C168.419,27.908 168.352,27.91 168.289,27.914 C168.226,27.916 168.174,27.928 168.136,27.947 L168.136,28.622 L168.46,28.622 C168.644,28.622 168.787,28.593 168.889,28.536 C168.99,28.479 169.041,28.382 169.041,28.242 C169.041,28.019 168.857,27.908 168.488,27.908 z M167.642,27.575 C167.743,27.543 167.886,27.519 168.07,27.504 C168.253,27.488 168.429,27.479 168.593,27.479 C168.859,27.479 169.088,27.535 169.278,27.646 C169.469,27.757 169.564,27.951 169.564,28.222 C169.564,28.424 169.499,28.581 169.369,28.688 C169.239,28.797 169.079,28.856 168.889,28.868 L169.154,29.003 L169.859,30.04 L169.278,30.04 L168.593,29.05 L168.136,28.906 L168.136,30.04 L167.642,30.04 L167.642,27.575 z M166.699,28.812 C166.699,29.142 166.75,29.43 166.851,29.674 C166.953,29.918 167.091,30.12 167.266,30.283 C167.44,30.444 167.645,30.567 167.88,30.65 C168.114,30.73 168.361,30.773 168.622,30.773 C168.895,30.773 169.149,30.734 169.383,30.654 C169.618,30.575 169.82,30.454 169.992,30.293 C170.163,30.131 170.298,29.928 170.397,29.683 C170.495,29.438 170.544,29.147 170.544,28.812 C170.544,28.482 170.493,28.196 170.392,27.951 C170.291,27.707 170.152,27.504 169.978,27.341 C169.803,27.181 169.6,27.058 169.369,26.975 C169.137,26.894 168.889,26.852 168.622,26.852 C168.342,26.852 168.086,26.894 167.851,26.975 C167.616,27.058 167.413,27.181 167.242,27.341 C167.07,27.504 166.938,27.707 166.842,27.951 C166.747,28.196 166.699,28.482 166.699,28.812 z M166.1,28.812 C166.1,28.407 166.166,28.047 166.299,27.731 C166.433,27.418 166.615,27.155 166.847,26.943 C167.079,26.729 167.346,26.568 167.65,26.458 C167.955,26.347 168.279,26.291 168.622,26.291 C168.97,26.291 169.299,26.347 169.607,26.458 C169.914,26.568 170.182,26.729 170.411,26.943 C170.639,27.155 170.818,27.418 170.949,27.731 C171.079,28.047 171.144,28.407 171.144,28.812 C171.144,29.218 171.077,29.577 170.944,29.893 C170.811,30.207 170.628,30.472 170.397,30.682 C170.165,30.895 169.897,31.057 169.593,31.168 C169.288,31.279 168.964,31.335 168.622,31.335 C168.266,31.335 167.937,31.279 167.632,31.168 C167.327,31.057 167.061,30.895 166.833,30.682 C166.605,30.472 166.425,30.207 166.295,29.893 C166.165,29.577 166.1,29.218 166.1,28.812" fill="#82958C"/>
  </g>
</svg>
