<?xml version="1.0" encoding="utf-8"?>
<!-- Generator: Adobe Illustrator 18.1.1, SVG Export Plug-In . SVG Version: 6.00 Build 0)  -->
<svg version="1.0" id="Layer_1" xmlns="http://www.w3.org/2000/svg" xmlns:xlink="http://www.w3.org/1999/xlink" x="0px" y="0px"
	 viewBox="0 0 16 16" enable-background="new 0 0 16 16" xml:space="preserve">
<path d="M13.7,9.1H16V6.9h-2.3V9.1z M11.4,4.6h2.3v2.3h-2.3V4.6z M9.1,2.3h2.3v2.3H9.1V2.3z M6.9,0h2.3v2.3H6.9V0z M11.4,9.1h2.3
	v2.3h-2.3V9.1z M9.1,11.4h2.3v2.3H9.1V11.4z M6.9,13.7h2.3V16H6.9V13.7z M6.9,6.9h2.3v2.3H6.9V6.9z M4.6,4.6h2.3v2.3H4.6V4.6z
	 M2.3,2.3h2.3v2.3H2.3V2.3z M0,0h2.3v2.3H0V0z M4.6,9.1h2.3v2.3H4.6V9.1z M2.3,11.4h2.3v2.3H2.3V11.4z M0,13.7h2.3V16H0V13.7z"/>
</svg>
